<svg width="6860" height="2543" viewBox="0 0 6860 2543" fill="none" xmlns="http://www.w3.org/2000/svg">
<path fill-rule="evenodd" clip-rule="evenodd" d="M1957.57 2212.1C1951.19 2212.07 1944.8 2212.05 1938.41 2212.03C1944.62 2212.05 1950.82 2212.07 1957.01 2212.09L1957.57 2212.1Z" fill="#FAFAF8"></path>
<path fill-rule="evenodd" clip-rule="evenodd" d="M2898.15 614.609C2921.1 615.192 2944.14 617.021 2966.93 620.182C3533.96 698.443 3319.39 1764.99 2787.78 1759.75C2601.32 1757.83 2516.49 1733.88 2404.88 1582.02C2383.67 1653.79 2363.71 1730.56 2344.5 1808.15C2330.77 1863.67 2317.47 1919.63 2304.41 1974.52C2294.84 2014.76 2285.41 2054.43 2276.05 2092.92C2268.9 2124.27 2260 2155.79 2251.1 2187.06L2245.86 2206.03C2200.53 2209.19 2155.62 2210.77 2110.71 2211.51C2059.75 2212.44 2008.91 2212.27 1957.57 2212.1C1948.92 2212.07 1940.25 2212.04 1931.57 2212.01L2297.59 637.564C2400.89 633.572 2515.08 635.484 2618.37 637.564C2610.97 673.825 2603.82 696.446 2592.17 731.793C2694.8 641.888 2764.33 621.429 2898.15 614.609ZM2757.43 830.513C3064.65 806.394 2982.31 1292.26 2869.12 1437.55C2839.93 1475.06 2816.89 1498.18 2788.53 1514.15C2764.5 1527.71 2736.63 1536.11 2697.88 1543.59C2646.4 1545.76 2603.73 1536.94 2569.97 1516.4C2527.05 1490.2 2498.69 1445.04 2485.05 1379.17C2455.78 1237.95 2494.28 1068.04 2568.8 946.116C2613.13 873.511 2677.34 846.897 2757.43 830.513Z" fill="#FAFAF8"></path>
<path fill-rule="evenodd" clip-rule="evenodd" d="M5548.79 259.057C5655.33 256.728 5761.95 256.728 5868.57 259.14C5828.1 459.921 5778.39 671.822 5729.51 880.174C5705.67 981.825 5682.02 1082.63 5659.74 1180.89L5589.54 1493.27C5586.59 1506.47 5583.67 1519.85 5580.73 1533.33C5565.72 1602.13 5550.13 1673.57 5526 1737.61C5477.2 1740.52 5426.73 1740.61 5376.76 1740.69C5352.72 1740.69 5328.73 1740.77 5305.19 1741.11C5300.35 1741.17 5295.73 1741.25 5291.31 1741.32C5212.2 1742.64 5199.9 1742.85 5229.76 1657.86C5083.8 1752.42 4970.36 1789.93 4798.45 1739.86C4538.47 1633.32 4503.12 1391.55 4545.2 1140.47C4599.43 816.364 4835.71 557.047 5184.35 623.747C5299.37 645.787 5364.07 694.856 5430.19 790.582C5442.82 701.271 5471.33 585.409 5499.04 472.791C5517.68 397.059 5535.95 322.794 5548.79 259.057ZM5140.44 830.835C5450.9 804.055 5374.14 1295.91 5253.21 1443.37C5201.98 1505.83 5160.56 1533.6 5080.47 1544.33C5025.17 1545.41 4976.85 1532.85 4939.84 1506.16C4900.5 1477.8 4873.8 1433.47 4864.65 1372.42C4843.28 1228.38 4884.7 1050.4 4965.12 929.056C5009.95 861.275 5065.09 843.809 5140.44 830.835Z" fill="#FAFAF8"></path>
<path fill-rule="evenodd" clip-rule="evenodd" d="M3888.5 614.534C4059.41 613.785 4149.23 662.771 4246.2 802.077C4252.61 748.6 4264.5 689.718 4276.56 637.239C4388.01 632.664 4487.56 634.577 4598.59 637.488L4597.65 642.083C4593.05 664.597 4588.44 687.179 4583.62 709.761C4577.46 738.121 4571.06 766.481 4563.91 794.509C4528.43 933.331 4497.57 1074.26 4466.69 1215.24C4428.44 1389.9 4390.17 1564.63 4343.09 1735.55C4288.03 1741.42 4219.97 1741.14 4159.14 1740.89L4155.3 1740.88L4121.29 1740.71C4097.83 1741.79 4079.62 1742.37 4065.98 1740.88C4028.05 1736.8 4025.64 1717.26 4046.1 1650.97C4009.01 1677.92 3976.74 1700.04 3943.14 1717.34C3902.06 1738.46 3858.89 1752.27 3802.59 1758.42C3540.53 1786.87 3360.8 1606.31 3344.08 1349.65C3331.52 1157.29 3390.57 930.987 3519.15 781.036C3558.16 735.626 3601.24 701.361 3648.31 675.995C3719.42 637.654 3799.68 619.773 3888.5 614.534ZM3947.55 830.437C4251.11 809.23 4184.16 1251.02 4085.44 1411.11C4038.45 1487.46 3986.06 1523.14 3900.48 1543.6C3783.62 1551.83 3701.21 1493.87 3679.33 1376.6C3652.22 1231.81 3698.71 1059.15 3773.56 934.48C3814.98 865.534 3874.28 845.99 3947.55 830.437Z" fill="#FAFAF8"></path>
<path d="M956.993 3.23077C1067.26 -1.24661 1184.75 0.0353625 1295.39 0.661287L887.008 1172.75L753.17 1556.47C703.086 1699.47 672.747 1821.73 562.637 1934.1C408.721 2091.18 262.936 2135.5 50.7449 2142.06C51.9058 2029.95 50.8459 1916.02 50.7955 1803.76C161.825 1803.11 227.257 1798.61 314.363 1726.63C331.665 1707.6 346.332 1686.3 357.986 1663.38C396.36 1587.46 384.762 1525.73 361.368 1447.76C255.174 1093.84 115.506 750.014 0 399.203C115.506 398.83 236.256 396.836 351.187 400.127C433.452 599.913 508.631 832.227 577.935 1038.6C673.101 722.857 811.259 403.282 909.281 87.0339C917.831 59.4427 930.959 15.4312 956.993 3.23077Z" fill="#FAFAF8"></path>
<path fill-rule="evenodd" clip-rule="evenodd" d="M6321.42 609.475C6444.18 591.844 6614.34 643.99 6708.99 723.498C6947.59 923.933 6873.08 1347.34 6688.36 1558C6567.02 1696.23 6423.89 1753.78 6243.99 1766.26C6119.82 1779.15 5957.07 1731.82 5861.84 1651.48C5622.9 1449.8 5686.02 1040.95 5867.58 823.133C5914.9 766.33 5965.96 723.914 6021.35 692.31C6109.51 642.077 6208.73 619.206 6321.42 609.475ZM6316.27 825.712C6435.2 815.232 6507.72 882.182 6522.36 996.538C6547.81 1194.73 6490.92 1512.51 6253.81 1549.85C6184.7 1552.27 6123.98 1535.55 6084.4 1492.88C6060.86 1467.6 6044.81 1433.17 6038.9 1388.09C6020.02 1244.3 6045.47 1062.82 6128.06 940.649C6156.09 899.149 6185.86 872.202 6222.2 854.072C6249.23 840.515 6279.92 831.866 6316.27 825.712Z" fill="#FAFAF8"></path>
<path fill-rule="evenodd" clip-rule="evenodd" d="M1603.38 609.365C1672.91 600.882 1764.4 613.107 1831.43 632.153C2111.95 711.744 2183.31 997.759 2104.14 1253.5C2035.08 1257.06 1962.53 1256.37 1891.14 1255.7C1864.16 1255.44 1837.36 1255.19 1810.97 1255.16L1300.98 1254.66C1300.99 1260.87 1300.98 1267.09 1300.96 1273.32C1300.82 1323.65 1300.68 1374.46 1314.37 1423.16C1350.64 1552.49 1493.44 1573.28 1603.72 1534.02C1692.46 1502.42 1719.57 1445.78 1756.91 1366.69C1794.17 1366.52 1831.43 1366.61 1868.69 1366.86C1929.9 1367.27 1991.11 1368.19 2052.32 1369.6L2058.31 1377.17C2059.48 1425.24 1992.77 1533.11 1962.67 1571.45C1788.68 1793.34 1345.4 1835.09 1130.74 1658.78C894.71 1464.75 958.916 1035.93 1138.81 823.688C1268.22 670.992 1411.27 626.581 1603.38 609.365ZM1579.1 825.768C1741.28 813.292 1808.39 887.561 1805.9 1047.49L1571.2 1047.41L1333.09 1047.08C1387.65 921.41 1440.04 850.552 1579.1 825.768Z" fill="#FAFAF8"></path>
<path fill-rule="evenodd" clip-rule="evenodd" d="M4952.48 2273.06C4954.22 2273.11 4955.96 2273.26 4957.72 2273.31C4957.99 2273.32 4958.27 2273.22 4958.55 2273.23C4965.3 2273.43 4972.14 2273.67 4979.01 2273.81C4972.14 2273.67 4965.31 2273.45 4958.55 2273.23L4957.72 2273.31L4952.48 2273.06Z" fill="white"></path>
<path d="M4109.03 2022.05C4221.08 2011.05 4308.75 2046.13 4328.49 2166.62L4243.14 2167.38C4221.59 2115.99 4198.22 2099.08 4140.28 2096.91C4118.32 2096.05 4074.01 2110.9 4062.15 2129.88C4015 2206.05 4120.34 2231.39 4177.68 2245.32C4300.02 2275 4390.22 2353.04 4302.49 2481.71C4274.68 2522.49 4214.22 2537.28 4165.31 2541.52C4034.94 2542.58 3976.09 2520.77 3938.99 2387.31C3960.19 2384.59 4008.59 2385.24 4032.01 2384.94C4038.73 2406.95 4051.85 2435.97 4072.04 2447.53C4118.57 2474.18 4201.9 2472.52 4232.69 2423.96C4241.52 2410.28 4244.1 2393.52 4239.81 2377.82C4218.76 2298.02 3982.35 2325.07 3961.55 2204.58C3942.32 2093.23 4010.81 2039.87 4109.03 2022.05Z" fill="#FAFAF8"></path>
<path d="M4416.3 2026.32L4747.7 2026.22L4746.54 2102.54H4507.96L4507.75 2242.06L4730.69 2241.91L4730.03 2318.63L4507.8 2318.69L4507.85 2458.86L4749.52 2459.52V2535.59H4416.6L4416.3 2026.32Z" fill="#FAFAF8"></path>
<path d="M6503.89 2026.4C6611.8 2024.23 6726.47 2026.2 6834.89 2026.2L6834.43 2102.37H6595.5L6595.45 2242.05L6817.73 2241.69L6817.68 2318.57L6595.25 2318.62L6595.4 2459.25L6837.11 2459.66L6837.01 2535.37L6504.19 2535.67L6503.89 2026.4Z" fill="#FAFAF8"></path>
<path d="M6173.37 2021.72C6310.71 2011.78 6384.2 2065.38 6420.74 2196.47L6327.16 2197.28C6289.61 2047.16 6079.04 2082.45 6066.27 2238.27C6058.4 2334.48 6076.22 2441.95 6192.45 2461.99C6229.05 2468.3 6273.51 2443.92 6299.96 2422.16C6315.71 2399.8 6318.23 2391.92 6327.97 2366.89C6358.56 2366.84 6390.46 2368 6421.14 2368.65C6392.68 2454.87 6360.27 2510.9 6264.63 2534.88C6128.3 2569.51 6001.52 2488.34 5977.69 2348.66C5951.3 2193.7 6005.81 2053.02 6173.37 2021.72Z" fill="#FAFAF8"></path>
<path d="M5254.54 2027.1C5283.36 2025.13 5325.6 2026.19 5355.48 2026.04C5378.7 2118.61 5456.68 2342.68 5490.75 2434.1C5530.52 2301.19 5580.09 2159.15 5623.59 2026.49C5657.01 2025.83 5692.08 2026.39 5725.65 2026.34L5697.13 2105.03C5647.37 2245.77 5592.6 2393.31 5547.33 2534.95L5431.85 2535.41C5381.58 2370.19 5306.22 2194.23 5254.54 2027.1Z" fill="#FAFAF8"></path>
<path d="M5791.97 2026.25L5884.54 2026.05L5884.14 2535.52H5792.23L5791.97 2026.25Z" fill="#FAFAF8"></path>
<path fill-rule="evenodd" clip-rule="evenodd" d="M4840.37 2026.22C4988.82 2024.72 5251.88 1985.8 5209.22 2233.64C5200.82 2282.46 5162.48 2310.82 5123.14 2335.6C5160.15 2401.8 5196.33 2468.42 5231.92 2535.29C5197.74 2535.79 5162.98 2536.95 5129.04 2533.96C5097.94 2472.74 5063.01 2409.95 5030.32 2349.24L4932.52 2349.07L4933.1 2535.62L4840.45 2535.45C4843.28 2403.13 4842.2 2264.99 4841.03 2130.09L4840.37 2026.22ZM4952.64 2101.98L4933.52 2102.4L4932.93 2272.64L4952.48 2273.06L4957.72 2273.31L4958.55 2273.22L4979.01 2273.81H4980.09L4982.5 2273.89H4983.67H4986.41H4989.74L4996.22 2273.97L5003.21 2273.89H5004.87L5009.95 2273.72H5010.94L5011.78 2273.64L5013.69 2273.56L5020.76 2273.14C5027.08 2272.73 5033.4 2272.14 5039.64 2271.23C5061.68 2268.07 5082.55 2261.75 5100.43 2249.44C5128.71 2205.36 5139.11 2151.05 5086.46 2122.03C5045.63 2099.65 4998.14 2100.82 4952.64 2101.98Z" fill="#FAFAF8"></path>
</svg>
